<mxfile host="app.diagrams.net" modified="2020-12-24T02:19:53.778Z" agent="5.0 (Windows NT 10.0; Win64; x64) AppleWebKit/537.36 (KHTML, like Gecko) Chrome/87.0.4280.88 Safari/537.36" etag="kjeimpmo2aaGmBTH3CDU" version="14.0.4" type="github">
  <diagram id="T26eJrPITHoP8e0tM_Jg" name="Page-1">
    <mxGraphModel dx="1102" dy="582" grid="0" gridSize="10" guides="1" tooltips="1" connect="1" arrows="1" fold="1" page="1" pageScale="1" pageWidth="850" pageHeight="1100" math="0" shadow="0">
      <root>
        <mxCell id="0" />
        <mxCell id="1" parent="0" />
        <mxCell id="3X0VyATacqPAaUVpvBAy-6" style="edgeStyle=orthogonalEdgeStyle;shape=flexArrow;rounded=0;orthogonalLoop=1;jettySize=auto;html=1;entryX=0.5;entryY=1;entryDx=0;entryDy=0;startArrow=block;" edge="1" parent="1" source="3X0VyATacqPAaUVpvBAy-2" target="3X0VyATacqPAaUVpvBAy-3">
          <mxGeometry relative="1" as="geometry">
            <mxPoint x="270" y="500" as="targetPoint" />
            <Array as="points">
              <mxPoint x="205" y="390" />
              <mxPoint x="299" y="390" />
            </Array>
          </mxGeometry>
        </mxCell>
        <mxCell id="3X0VyATacqPAaUVpvBAy-2" value="" style="points=[[0.03,0.36,0],[0.18,0,0],[0.5,0.34,0],[0.82,0,0],[0.97,0.36,0],[1,0.67,0],[0.975,0.975,0],[0.5,1,0],[0.025,0.975,0],[0,0.67,0]];verticalLabelPosition=bottom;html=1;verticalAlign=top;aspect=fixed;align=center;pointerEvents=1;shape=mxgraph.cisco19.wireless_access_point;fillColor=#005073;strokeColor=none;" vertex="1" parent="1">
          <mxGeometry x="130" y="180" width="150" height="150" as="geometry" />
        </mxCell>
        <mxCell id="3X0VyATacqPAaUVpvBAy-3" value="" style="shape=image;html=1;verticalAlign=top;verticalLabelPosition=bottom;labelBackgroundColor=#ffffff;imageAspect=0;aspect=fixed;image=https://cdn2.iconfinder.com/data/icons/orbiconspack/PNG/Bluetooth.png" vertex="1" parent="1">
          <mxGeometry x="280" y="312" width="38" height="38" as="geometry" />
        </mxCell>
        <mxCell id="3X0VyATacqPAaUVpvBAy-4" value="" style="points=[[0.005,0.09,0],[0.08,0,0],[0.76,0.25,0],[1,0.92,0],[0.91,0.995,0],[0.57,0.995,0],[0.045,0.955,0],[0.005,0.43,0]];verticalLabelPosition=bottom;html=1;verticalAlign=top;aspect=fixed;align=center;pointerEvents=1;shape=mxgraph.cisco19.3g_4g_indicator;fillColor=#005073;strokeColor=none;" vertex="1" parent="1">
          <mxGeometry x="190" y="180" width="30" height="30" as="geometry" />
        </mxCell>
        <mxCell id="3X0VyATacqPAaUVpvBAy-5" value="&lt;b&gt;&lt;font style=&quot;font-size: 15px&quot;&gt;cc2640&lt;/font&gt;&lt;/b&gt;" style="text;html=1;resizable=0;autosize=1;align=center;verticalAlign=middle;points=[];fillColor=none;strokeColor=none;rounded=0;" vertex="1" parent="1">
          <mxGeometry x="280" y="292" width="70" height="20" as="geometry" />
        </mxCell>
        <mxCell id="3X0VyATacqPAaUVpvBAy-7" value="&lt;b&gt;&lt;font style=&quot;font-size: 15px&quot; color=&quot;#990000&quot;&gt;UART&lt;/font&gt;&lt;/b&gt;" style="text;html=1;resizable=0;autosize=1;align=center;verticalAlign=middle;points=[];fillColor=none;strokeColor=none;rounded=0;" vertex="1" parent="1">
          <mxGeometry x="215" y="360" width="60" height="20" as="geometry" />
        </mxCell>
        <mxCell id="3X0VyATacqPAaUVpvBAy-8" value="" style="shape=image;html=1;verticalAlign=top;verticalLabelPosition=bottom;labelBackgroundColor=#ffffff;imageAspect=0;aspect=fixed;image=https://cdn4.iconfinder.com/data/icons/iPhone_4G-png/128/iphone%204G.png" vertex="1" parent="1">
          <mxGeometry x="570" y="290" width="70" height="70" as="geometry" />
        </mxCell>
        <mxCell id="3X0VyATacqPAaUVpvBAy-9" style="edgeStyle=orthogonalEdgeStyle;shape=flexArrow;rounded=0;orthogonalLoop=1;jettySize=auto;html=1;startArrow=block;" edge="1" parent="1">
          <mxGeometry relative="1" as="geometry">
            <mxPoint x="570" y="331" as="targetPoint" />
            <mxPoint x="320" y="331" as="sourcePoint" />
            <Array as="points">
              <mxPoint x="470" y="331" />
              <mxPoint x="470" y="331" />
            </Array>
          </mxGeometry>
        </mxCell>
        <mxCell id="3X0VyATacqPAaUVpvBAy-10" value="&lt;b&gt;&lt;font style=&quot;font-size: 15px&quot; color=&quot;#990000&quot;&gt;PIN Connection&lt;/font&gt;&lt;/b&gt;" style="text;html=1;resizable=0;autosize=1;align=center;verticalAlign=middle;points=[];fillColor=none;strokeColor=none;rounded=0;" vertex="1" parent="1">
          <mxGeometry x="380" y="300" width="130" height="20" as="geometry" />
        </mxCell>
        <mxCell id="3X0VyATacqPAaUVpvBAy-11" value="&lt;span style=&quot;font-size: 15px&quot;&gt;&lt;b&gt;IDU&lt;/b&gt;&lt;/span&gt;" style="text;html=1;resizable=0;autosize=1;align=center;verticalAlign=middle;points=[];fillColor=none;strokeColor=none;rounded=0;" vertex="1" parent="1">
          <mxGeometry x="140" y="245" width="40" height="20" as="geometry" />
        </mxCell>
        <mxCell id="3X0VyATacqPAaUVpvBAy-15" value="&lt;div style=&quot;text-align: left ; font-size: 15px&quot;&gt;&lt;span style=&quot;color: rgb(153 , 0 , 0)&quot;&gt;&lt;font style=&quot;font-size: 15px&quot;&gt;&lt;b&gt;Android APP:&lt;/b&gt;&lt;/font&gt;&lt;/span&gt;&lt;/div&gt;&lt;font color=&quot;#990000&quot; style=&quot;font-size: 15px&quot;&gt;&lt;div style=&quot;text-align: left&quot;&gt;&lt;span&gt;&lt;b&gt;Get and Set IDU status&lt;/b&gt;&lt;/span&gt;&lt;/div&gt;&lt;/font&gt;" style="text;html=1;resizable=0;autosize=1;align=center;verticalAlign=middle;points=[];fillColor=#f5f5f5;rounded=0;fontColor=#333333;" vertex="1" parent="1">
          <mxGeometry x="570" y="260" width="180" height="30" as="geometry" />
        </mxCell>
        <mxCell id="3X0VyATacqPAaUVpvBAy-17" value="" style="points=[[0.03,0.36,0],[0.18,0,0],[0.5,0.34,0],[0.82,0,0],[0.97,0.36,0],[1,0.67,0],[0.975,0.975,0],[0.5,1,0],[0.025,0.975,0],[0,0.67,0]];verticalLabelPosition=bottom;html=1;verticalAlign=top;aspect=fixed;align=center;pointerEvents=1;shape=mxgraph.cisco19.wireless_access_point;fillColor=#005073;strokeColor=none;" vertex="1" parent="1">
          <mxGeometry x="120" y="470" width="150" height="150" as="geometry" />
        </mxCell>
        <mxCell id="3X0VyATacqPAaUVpvBAy-19" value="" style="points=[[0.005,0.09,0],[0.08,0,0],[0.76,0.25,0],[1,0.92,0],[0.91,0.995,0],[0.57,0.995,0],[0.045,0.955,0],[0.005,0.43,0]];verticalLabelPosition=bottom;html=1;verticalAlign=top;aspect=fixed;align=center;pointerEvents=1;shape=mxgraph.cisco19.3g_4g_indicator;fillColor=#005073;strokeColor=none;" vertex="1" parent="1">
          <mxGeometry x="180" y="470" width="30" height="30" as="geometry" />
        </mxCell>
        <mxCell id="3X0VyATacqPAaUVpvBAy-20" value="&lt;b&gt;&lt;font style=&quot;font-size: 15px&quot;&gt;WiFi&lt;/font&gt;&lt;/b&gt;" style="text;html=1;resizable=0;autosize=1;align=center;verticalAlign=middle;points=[];fillColor=none;strokeColor=none;rounded=0;" vertex="1" parent="1">
          <mxGeometry x="268" y="590" width="50" height="20" as="geometry" />
        </mxCell>
        <mxCell id="3X0VyATacqPAaUVpvBAy-22" value="" style="shape=image;html=1;verticalAlign=top;verticalLabelPosition=bottom;labelBackgroundColor=#ffffff;imageAspect=0;aspect=fixed;image=https://cdn4.iconfinder.com/data/icons/iPhone_4G-png/128/iphone%204G.png" vertex="1" parent="1">
          <mxGeometry x="560" y="580" width="70" height="70" as="geometry" />
        </mxCell>
        <mxCell id="3X0VyATacqPAaUVpvBAy-23" style="edgeStyle=orthogonalEdgeStyle;shape=flexArrow;rounded=0;orthogonalLoop=1;jettySize=auto;html=1;startArrow=block;" edge="1" parent="1">
          <mxGeometry relative="1" as="geometry">
            <mxPoint x="560" y="621" as="targetPoint" />
            <mxPoint x="310" y="621" as="sourcePoint" />
            <Array as="points">
              <mxPoint x="460" y="621" />
              <mxPoint x="460" y="621" />
            </Array>
          </mxGeometry>
        </mxCell>
        <mxCell id="3X0VyATacqPAaUVpvBAy-24" value="&lt;b&gt;&lt;font style=&quot;font-size: 15px&quot; color=&quot;#990000&quot;&gt;SSH Connection&lt;/font&gt;&lt;/b&gt;" style="text;html=1;resizable=0;autosize=1;align=center;verticalAlign=middle;points=[];fillColor=none;strokeColor=none;rounded=0;" vertex="1" parent="1">
          <mxGeometry x="370" y="590" width="130" height="20" as="geometry" />
        </mxCell>
        <mxCell id="3X0VyATacqPAaUVpvBAy-25" value="&lt;span style=&quot;font-size: 15px&quot;&gt;&lt;b&gt;IDU&lt;/b&gt;&lt;/span&gt;" style="text;html=1;resizable=0;autosize=1;align=center;verticalAlign=middle;points=[];fillColor=none;strokeColor=none;rounded=0;" vertex="1" parent="1">
          <mxGeometry x="130" y="535" width="40" height="20" as="geometry" />
        </mxCell>
        <mxCell id="3X0VyATacqPAaUVpvBAy-26" value="&lt;div style=&quot;text-align: left ; font-size: 15px&quot;&gt;&lt;span style=&quot;color: rgb(153 , 0 , 0)&quot;&gt;&lt;font style=&quot;font-size: 15px&quot;&gt;&lt;b&gt;Android APP:&lt;/b&gt;&lt;/font&gt;&lt;/span&gt;&lt;/div&gt;&lt;font color=&quot;#990000&quot; style=&quot;font-size: 15px&quot;&gt;&lt;div style=&quot;text-align: left&quot;&gt;&lt;span&gt;&lt;b&gt;Get and Set IDU status&lt;/b&gt;&lt;/span&gt;&lt;/div&gt;&lt;/font&gt;" style="text;html=1;resizable=0;autosize=1;align=center;verticalAlign=middle;points=[];fillColor=#f5f5f5;rounded=0;fontColor=#333333;" vertex="1" parent="1">
          <mxGeometry x="560" y="550" width="180" height="30" as="geometry" />
        </mxCell>
        <mxCell id="3X0VyATacqPAaUVpvBAy-27" value="" style="points=[[0,0.58,0],[0.09,0.58,0],[0.36,0.39,0],[0.64,0.195,0],[0.91,0,0],[1,0,0],[1,0.25,0],[1,0.5,0],[1,0.75,0],[1,1,0],[0,1,0],[0.09,1,0],[0.36,1,0],[0.64,1,0],[0.91,1,0],[0,0.79,0]];verticalLabelPosition=bottom;html=1;verticalAlign=top;aspect=fixed;align=center;pointerEvents=1;shape=mxgraph.cisco19.wifi_indicator;fillColor=#005073;strokeColor=none;" vertex="1" parent="1">
          <mxGeometry x="295" y="566" width="18" height="18" as="geometry" />
        </mxCell>
      </root>
    </mxGraphModel>
  </diagram>
</mxfile>
